<svg width="1557" height="481" viewBox="0 0 1557 481" fill="none" xmlns="http://www.w3.org/2000/svg">
<rect y="74" width="407" height="407" rx="51" fill="#F5F5F5"/>
<path d="M290.008 216.321L125.993 405.298L150.871 307.583L22.792 250.429H243.015L177.593 228.305L195.1 189.588H383.994L290.008 216.321Z" fill="#202020"/>
<path d="M573.08 420.66C553.573 420.66 536.093 417.493 520.64 411.16C505.187 404.827 492.773 395.453 483.4 383.04C474.28 370.627 469.467 355.68 468.96 338.2H538.12C539.133 348.08 542.553 355.68 548.38 361C554.207 366.067 561.807 368.6 571.18 368.6C580.807 368.6 588.407 366.447 593.98 362.14C599.553 357.58 602.34 351.373 602.34 343.52C602.34 336.933 600.06 331.487 595.5 327.18C591.193 322.873 585.747 319.327 579.16 316.54C572.827 313.753 563.707 310.587 551.8 307.04C534.573 301.72 520.513 296.4 509.62 291.08C498.727 285.76 489.353 277.907 481.5 267.52C473.647 257.133 469.72 243.58 469.72 226.86C469.72 202.033 478.713 182.653 496.7 168.72C514.687 154.533 538.12 147.44 567 147.44C596.387 147.44 620.073 154.533 638.06 168.72C656.047 182.653 665.673 202.16 666.94 227.24H596.64C596.133 218.627 592.967 211.913 587.14 207.1C581.313 202.033 573.84 199.5 564.72 199.5C556.867 199.5 550.533 201.653 545.72 205.96C540.907 210.013 538.5 215.967 538.5 223.82C538.5 232.433 542.553 239.147 550.66 243.96C558.767 248.773 571.433 253.967 588.66 259.54C605.887 265.367 619.82 270.94 630.46 276.26C641.353 281.58 650.727 289.307 658.58 299.44C666.433 309.573 670.36 322.62 670.36 338.58C670.36 353.78 666.433 367.587 658.58 380C650.98 392.413 639.833 402.293 625.14 409.64C610.447 416.987 593.093 420.66 573.08 420.66ZM699.329 284.24C699.329 257.893 705.029 234.46 716.429 213.94C727.829 193.167 743.662 177.08 763.929 165.68C784.449 154.027 807.629 148.2 833.469 148.2C865.136 148.2 892.242 156.56 914.789 173.28C937.336 190 952.409 212.8 960.009 241.68H888.569C883.249 230.533 875.649 222.047 865.769 216.22C856.142 210.393 845.122 207.48 832.709 207.48C812.696 207.48 796.482 214.447 784.069 228.38C771.656 242.313 765.449 260.933 765.449 284.24C765.449 307.547 771.656 326.167 784.069 340.1C796.482 354.033 812.696 361 832.709 361C845.122 361 856.142 358.087 865.769 352.26C875.649 346.433 883.249 337.947 888.569 326.8H960.009C952.409 355.68 937.336 378.48 914.789 395.2C892.242 411.667 865.136 419.9 833.469 419.9C807.629 419.9 784.449 414.2 763.929 402.8C743.662 391.147 727.829 375.06 716.429 354.54C705.029 334.02 699.329 310.587 699.329 284.24ZM1230.84 151.24V418H1165.86V308.18H1064.78V418H999.802V151.24H1064.78V255.74H1165.86V151.24H1230.84ZM1377.69 151.24C1405.81 151.24 1430.38 156.813 1451.41 167.96C1472.44 179.107 1488.65 194.813 1500.05 215.08C1511.7 235.093 1517.53 258.273 1517.53 284.62C1517.53 310.713 1511.7 333.893 1500.05 354.16C1488.65 374.427 1472.31 390.133 1451.03 401.28C1430 412.427 1405.56 418 1377.69 418H1277.75V151.24H1377.69ZM1373.51 361.76C1398.08 361.76 1417.21 355.047 1430.89 341.62C1444.57 328.193 1451.41 309.193 1451.41 284.62C1451.41 260.047 1444.57 240.92 1430.89 227.24C1417.21 213.56 1398.08 206.72 1373.51 206.72H1342.73V361.76H1373.51Z" fill="#F5F5F5"/>
</svg>
