<svg width="1627" height="421" viewBox="0 0 1627 421" fill="none" xmlns="http://www.w3.org/2000/svg">
<path d="M475.689 81.5897L183.714 418L228.003 244.051L0 142.308H392.033L275.571 102.923L306.737 34H643L475.689 81.5897Z" fill="#121111"/>
<path d="M592.08 420.66C572.573 420.66 555.093 417.493 539.64 411.16C524.187 404.827 511.773 395.453 502.4 383.04C493.28 370.627 488.467 355.68 487.96 338.2H557.12C558.133 348.08 561.553 355.68 567.38 361C573.207 366.067 580.807 368.6 590.18 368.6C599.807 368.6 607.407 366.447 612.98 362.14C618.553 357.58 621.34 351.373 621.34 343.52C621.34 336.933 619.06 331.487 614.5 327.18C610.193 322.873 604.747 319.327 598.16 316.54C591.827 313.753 582.707 310.587 570.8 307.04C553.573 301.72 539.513 296.4 528.62 291.08C517.727 285.76 508.353 277.907 500.5 267.52C492.647 257.133 488.72 243.58 488.72 226.86C488.72 202.033 497.713 182.653 515.7 168.72C533.687 154.533 557.12 147.44 586 147.44C615.387 147.44 639.073 154.533 657.06 168.72C675.047 182.653 684.673 202.16 685.94 227.24H615.64C615.133 218.627 611.967 211.913 606.14 207.1C600.313 202.033 592.84 199.5 583.72 199.5C575.867 199.5 569.533 201.653 564.72 205.96C559.907 210.013 557.5 215.967 557.5 223.82C557.5 232.433 561.553 239.147 569.66 243.96C577.767 248.773 590.433 253.967 607.66 259.54C624.887 265.367 638.82 270.94 649.46 276.26C660.353 281.58 669.727 289.307 677.58 299.44C685.433 309.573 689.36 322.62 689.36 338.58C689.36 353.78 685.433 367.587 677.58 380C669.98 392.413 658.833 402.293 644.14 409.64C629.447 416.987 612.093 420.66 592.08 420.66ZM718.329 284.24C718.329 257.893 724.029 234.46 735.429 213.94C746.829 193.167 762.662 177.08 782.929 165.68C803.449 154.027 826.629 148.2 852.469 148.2C884.136 148.2 911.242 156.56 933.789 173.28C956.336 190 971.409 212.8 979.009 241.68H907.569C902.249 230.533 894.649 222.047 884.769 216.22C875.142 210.393 864.122 207.48 851.709 207.48C831.696 207.48 815.482 214.447 803.069 228.38C790.656 242.313 784.449 260.933 784.449 284.24C784.449 307.547 790.656 326.167 803.069 340.1C815.482 354.033 831.696 361 851.709 361C864.122 361 875.142 358.087 884.769 352.26C894.649 346.433 902.249 337.947 907.569 326.8H979.009C971.409 355.68 956.336 378.48 933.789 395.2C911.242 411.667 884.136 419.9 852.469 419.9C826.629 419.9 803.449 414.2 782.929 402.8C762.662 391.147 746.829 375.06 735.429 354.54C724.029 334.02 718.329 310.587 718.329 284.24ZM1249.84 151.24V418H1184.86V308.18H1083.78V418H1018.8V151.24H1083.78V255.74H1184.86V151.24H1249.84ZM1396.69 151.24C1424.81 151.24 1449.38 156.813 1470.41 167.96C1491.44 179.107 1507.65 194.813 1519.05 215.08C1530.7 235.093 1536.53 258.273 1536.53 284.62C1536.53 310.713 1530.7 333.893 1519.05 354.16C1507.65 374.427 1491.31 390.133 1470.03 401.28C1449 412.427 1424.56 418 1396.69 418H1296.75V151.24H1396.69ZM1392.51 361.76C1417.08 361.76 1436.21 355.047 1449.89 341.62C1463.57 328.193 1470.41 309.193 1470.41 284.62C1470.41 260.047 1463.57 240.92 1449.89 227.24C1436.21 213.56 1417.08 206.72 1392.51 206.72H1361.73V361.76H1392.51Z" fill="#121111"/>
</svg>
